<mxfile host="65bd71144e">
    <diagram id="QReVsgJRFopQMgkvQrVl" name="Page-1">
        <mxGraphModel dx="594" dy="569" grid="1" gridSize="10" guides="1" tooltips="1" connect="1" arrows="1" fold="1" page="1" pageScale="1" pageWidth="827" pageHeight="1169" math="0" shadow="0">
            <root>
                <mxCell id="0"/>
                <mxCell id="1" parent="0"/>
                <mxCell id="2" value="" style="rounded=0;whiteSpace=wrap;html=1;" vertex="1" parent="1">
                    <mxGeometry x="40" y="40" width="480" height="290" as="geometry"/>
                </mxCell>
                <mxCell id="3" value="&amp;nbsp; &amp;nbsp; &amp;nbsp; &amp;nbsp;Cookie clicker" style="rounded=0;whiteSpace=wrap;html=1;align=left;" vertex="1" parent="1">
                    <mxGeometry x="40" y="40" width="480" height="40" as="geometry"/>
                </mxCell>
                <mxCell id="6" value="" style="shape=image;verticalLabelPosition=bottom;labelBackgroundColor=#ffffff;verticalAlign=top;aspect=fixed;imageAspect=0;image=data:image/png,iVBORw0KGgoAAAANSUhEUgAAAOEAAADfCAYAAAAAw7SnAAAAAXNSR0IArs4c6QAAAARnQU1BAACxjwv8YQUAAAAJcEhZcwAADsMAAA7DAcdvqGQAAD97SURBVHhe7Z0HdFzVtb+3umQVS7LcZLkDxiWmGYMBl9iYHjA8MBAgDi0kj5BAguEBfxyHlfLyTNojhAAmeX6UAObRAwFi4gIYU4Ixxr1gkJssq/c2//udmWvGQpo5986dmTvS/daaZd1R8cyd8zt7n7332SfJZyAeEVFbWysbN26UlStXyZo1a2T9+k+loaFRfS8nJ1tSU1PV121tbVJeflBmzz5dHnjgfsnNzVXPe/RuPBHaBOGtWLHSeKyQ119/Q/bt268El5mZeUh03VFVVS1z514sixb9V+AZj96MJ0ILlJeXy5tv/lOWLl1q/LtcCS4vL1fS09MDP6EPon3ppedl8uTJgWc8eiueCMOAxVu9+l157rnnZPnyFcrNDHYx7YJrWlJSIq+99mrgGY/eiifCbti6dau88MKL8tRTT8vnn38hhYUFtixeKHBLr756nixc+JPAMx69EU+EnSC4ct999yl3Mz+/r2H1cgLfiQ6lpbtVkGbu3EsCz3j0NjwRGuByPvvss7J48Z9lx46dSnyRuptWwCLef/99ct555wae8ehN9GoRIr6nnnrKsHz3KyE4sdazi2cRey+9UoSI78EHH5Lf/vb3kpmZEXWXUxcipt/61pWyYMHdXg6xF9GrRBhs+erq6qIuvrYOn6QmJwWu9OB1FRYWKvfUS1/0DnqNCJ9+eqksWnSvlJUdUGu+aIDo6lv8t7N/lsjIAZmybnezZKRaE2JwZc13vnO9TJs2NfAdj55Ijxfhe++9Jz/+8XwVcCkq6hd41jla2n3S2OqT7PQkGT84Q44ZmiUj+2dIUa5/bfno2wdl9c5G4/vJ6toKphiHDRsqF110ocyaNVNGjRplvI+iwE8cDpZ+3759UllZKVlZWTJixAjPrU0AeqwId+/eLT/72c/l2WefV+JzMuCCxWtuQ3jJMnFIhhw3vI8SXnZGshjfkvaOwA8GuH9Zmewob7VsEYPBTa2rq1f5SkQ4aNDAQ2Ksra2TAwcOSEVFhezZs1eJF/iZm266Ua677jp17eFOeqQIlyxZIgsW/FT69MlyLMFuGDxpau0wBCgyblC6nD4uN6TwgmkzfvlnL+yWurYkSU+xL8RgEFpHh/8/TU72W9nOEw2TRXlZmQr2eHWq7qVHifCTTz6RW2+9Te1icMr1NNd5xdk+mTa2r0wc2ke5muGE15kWQ72LXt4tFc3JEVlEO5D+WLLkL14e0qX0GBHee++vVcrBqUQ77iYCPH5oppw8OlvGDM6StBSR1vbAD9gAIT68oly2lLXYWiPaBatJxHXVqhWBZzzcRMKLkLXfzTffIu+994EjUc/6lg4VbJl+RB857agc5XJatXrhePLdg7JiW4MUZBmqjhHr1n0iNTWVXqDGhSS0CEk7XHrp5TJu3NiIrR+WL9VYr00zxDd7Qp5a60Vi9UKBRX1/R7088V6VEncs3FNPhO4lIUVIKP62226XF198OeK1H+KDmWOyleVjvRct8QWTYnijjYbV/eu7FfLeriaV4rCa2NfHJy0trbJx46eBaw83kXAiJPhyzTXXqXB8JBUvrPdqmzuU23n2xL4xE19nsIrrSxvlHxtqZf3eZsk1LLDTYiS9cd1118odd/xH4BkPN5FQIsT9/N73blT5r0jcz+qmDjl2SIbMnVwQN/EFg1VEd4hx5eY6JUbITEsWJzIaFKcvXfqkVwbnUhJGhPPn3yZPPPFkRO4nQZeCDJHLp/STcUOyHA22OAFihIq6NvlgZ728u7VGpTSaDJc501g38v2kJONfi8JsaWlRkdHuKm084ovrRcj675prro0o+mnm+s4ZnyPnHpuvBrPbBNiZYEHuq26Vbfub5bODLXKgukVqW5OUMPtmBn4oBKQnCFwtXfp04BkPt+FqEdJi4uKL56qZ3G7lC64nFS5XTil0hetpB9NdBfP1l1Y0y6LXDoTNN3LvSNJ7FTPuJfxUGicovD7rrHPUTG5HgFg/Ip+XTcqTH8weIH37JKYAAavNa+/8+slnhgMRDhw4MHDl4UZcKUL6eH7jG3NU9NNOAIa1X9+0DlnwjYEyc1ye611Pq5iuqi7R2rrl4QyuE+HixYvl8suvUBFQq2D9cD/PGJsjCy4amtDWz0nS0tICX3m4EVeJEAHefvudUlIyJPCMPrhmqca7+cHMfjLnhPweZ/3s0tbmzUJuxzUipAD7rrsW2BKgSj2kd8jCCwar1ENPt35WJpjU1BQ5cKA8cOXhRlwhwl/+8j9l0aJf23JBg93PdMMU9hYLmJupV/xNUGv//v2BKw83EncRYgHvvfc3tgU4b0p+r3U/dTYIs+F37959gSsPNxJXEbIGxAJadUH9yfcOtf479cicXhl8yc5I0dqTSHR5165dqujBw53ETYRmEMaqBSQA0yfFJ/dcMCgu6z/SAxRd8zBTBV09F22y0pMkO6Vdtd0IjU+dpUEDKA93EpeKGfKApCGsWkCS74UZHTL/vCHGIIzd+s8UFiVkOw80y+7KVtlT1aomhKraZsnPzVDf75edIqMGZEhxfpqUFGao34vWa0TwdHL74POmsG4pBdyLFv3K6+7tUmIuQrYinXfeBZYTyAhwVFGaXD+9SAVgYgEDvbHFJ6u31cr7W6pkV12y4QqLKqZmA3Bn2g03uTVgmigUnzomVyaNzI5KuRwC/3BnvfzlncqwbqlXP+puYipCakFnzJhluQ8M678JgzPk+hn9A89EFwY4G25Xba6VZz6qUZaG3e9W9/kxcTS0frlnsTAn1VHLWN3QJve8tF9rZz4760tLd8mQIdZTQB7RJTYmxYDAAMXYVgXIQEaA350ZGwFi/TbsbpRfvLhHXlxXq/rAYGnsbLRFHPz++7ua5Od/229Y1LpDrq0TIOrcNL05dNSokfLXvz4ZuPJwEzETIZtxKSa2agGPHpiuLGAs1n8I8M0NNfK7ZeXS0J6kFX3UwbSiS1ZXyePvHHRUiCeOylH3KRzU4T766GNelNSFxESEbMhdteotS7shYm0BEcbzH1bJE+9XG9bL+RYTwP4/WuL/9xtlgWci55hhWWqdqgNtLv7wh/sDVx5uIeoipCUFO+KtBGIOBWFiaAFf/FeVvPJpXaANofMCNMG60hL/4eUHAs/Yh3tDFJbGxOFTFX5r+Kc/PaTW5h7uIaoiJBKKG2qlJQVhf9IQREFjARaQ9oMvr6/V2qnuBLin9JGh/ygTQCTw+ukMTot+HTga4Pvf/0HgysMNRG3Usfa48spvSUlJceCZ8FAJk5PqU3nAWKUhyP09/FZlTBvxAhaRBsA0d4pkjYg1nHJEriFmPevNkmDTps2qXtfDHURtpNMXlDWIrmuHO4UbestZg2ImQAb/Y6srJCsteu5nKBD+kncqVDokEqieOXu8XoAG8vPzjLXhH+Xll/8WeMYjnkRltHMqEo15rfQFrWvukH+f0U+F3WMBAiQVsWFfi62TkrDaJkwg5sMqNKB6Y31NRG4phQAUBtBAWO81JKklwg03fE9WrlwVeM4jXjguQhb93/72tZbWgeZuiAklsW1D+MyacjVwrULN5rA+bTI6p1U9jsptlaFZrZKX6i+LsSJG3NJ/bqmXemMSigTK+OYc11dNZrrwGV144b95FjHOOC7CO++8S44+ekzgKjy4ULQinHJE7HZDYAV3lTdLqeEtW0lFpCd1SHFmqwzK6pCsTgaba55HlKYYdaHUbe3nDRGvDSePylGd5YKtdDio37322utVQb1HfHBUhHyQ9AfVzQcyWAZk+eT842O/H/Djz60dYY0Ah2a3f0V8XYEYi9LbtMXA63hjXeWhtoaRQGtH2vtbgZ0sP/nJPSqQVl7u7cKPNY6JkHQEH6SVfCBW6PtnDI65APn/3t9RZ1genVHvOyRAK/RN96mOb7qUNSZJea3/mOtIoFj86lMKlItvBVzTDz/8UI455ni1pveIHY6JkBNyrQhQrQONwRKrQEwwFD5XNhtuqYYG231JUpRhz0/GIiJiHciP0mk7EpcUcOnZ6Dx1dJZ2tNQEDwYxctT41KnTVaGFU2Vu/B3PynaNIyJk5uSIat26UHMdGOtADDDIGex6+CQr+avrPytkp+i9QSK0pRUtgavIQIiXndxPjhqQrsRtFSbTmpoamT//djnttGmycOFPVTNmqyA6gj64uTNnni7Tp39diZuWJl4N65dEvJWJk3InT56iHQ1lnaQa8140NOYCBFIBb2+tk8fXVIVdEzJ+B2a0KdfSLo2Gh/lFY1pYq0uO9MThmXLVqf0cC1C1GW/gVy+VSmVLsq00jAn53rq6erUvcebMGXLSSSfJsGHDDLHmH/J+mpqalXAPHixXE/Ly5Svkgw8+lOLiYsnLyz0UJ+Bv8LfoArdy5XJva5VBxCL83vf+Xd1w3WAMg43O2DTmjQdYwuUba+SZf9WEFSETBqmISCwhbK5JNda/fNW9EPi/xg/OkOumFzkaJeac/EUv71anO+nsOwwHImpqagrZz5TSuHDjgR01CPm1114NPNN7CT0Kw4CLQlJeV4CsA+ccm6uCB/GkxZgIdOAYMifwp0HC/y3d12UF8oeUAVKPywQYKSw5KMLAAnb30BkP/MzatR97xQIGEYnwxhtvUjddB2Z6clgzxuY5OtPbIV3TIjjRdAB31J+qCP+3dF+XFXD5KQPE/Z84JMNysCaaFBYWyJtvvhm46r3YFiHBmLKyAxaCMT6Vw4rHOrAzGWl6bxsL1tIRuTD8FjX03+G+OOEudgd//5ppRXL+xFzlkfgnhvhTX18f+Kr3YkuERLZ+85vfGW5JduCZ0JjR0Hi7oSZ9tXdM+KSmNSJnQaqN309JCj/gEcWQgjSJpjYQ4lkT+8odZ/dXa1Q3WMXsbL0x1JOxNcIefPAhFTHTsYIMLqpiOCE33m4oMBAH9U0zXlfgiZAkSWNHslS32LNQuKL17Qg+/O+TShjZ3986MZrwGQwvypBf/NsQdXwAQnRirWgHgjMZGdF/z27HsgjJ/TzwwJ+0d0jghl58UlHESWgnITKruxsdK1beYm+LQ3mz/u+RQhiQlxYTd938Pzg+gCbK5lox1mIkONPc3By46r1YloaVHiVYwWOND5hO2bEYXLowIRw7Ilfl0cLjX899UW9NiPsak1WzKJ2ADPeJxHp2RmxnKqwiExJpkfln9ld5SsQYSzfVO6zGoghJzD/wwIPaVpBC4rmTC1wlQOD1nHZUjuoJqkuLL1m216UqFzMUKjlvCBY3VDc1gQU69YjsqK4HQ4EY6VVDocCiS4rl4uPzZEh+qgrgmBZSa76yCIfVeKVsFkX48MOLtYMxfHDnTYh/TrA7eF10c7MWJTQsYmOaEhnrRARnPrjG+vF9BGsF9jS6wVtAjKQzSCNxzv8vLhykisGxkGzP4l7xuZriNAVqPszneOhA1cxnn3mH1WhXzDBjnXTSFG0ryAf2swsHx6xVhR1KK5rll68esNXgqSvLYKcyjAF92aQ8NfDd5jFA8FqeNhxlNa1qAzJfH6xrk6bWL29EXlayOjeRCe6Fj6plV0VrwBvonvLyg7J8+TI58sgjA8/0PrRH3/PPPx/4KjzMhGeOy4n5GscqRAknG7M8s7hVEFznh1WYqAgQTR3jTgECr8t8MKHito4ZnCUnjMyWM77WVwV3zAcTybHDs1WUd0S/dK33RIT9o4/WBq56J1oqwV247777tawgFoKaTHqeuCElEQoGyZzj86OaJA8Fa+Z50wa4KnKsiylMPmPzYYoOD5+cp46rT53piy++FLjqnWh9/K+++nd1vJYORBxnHZ2tahYTAfYzsq+xsjG2MwZu6MXH5SmroWMxEgnej27OkzTFG2/8o1cHaLSUsmjRvdoBGWa/6Ue7173qDK+TfY12dqPbhf+HCiKqV9zuLdiF1AfHw+mQmZkpf/tb7202FVaE7JTgpFed6hjWVtQm0gczkUAI7EYnQBJtIZoCdEsFUbRg3+bRxVla6236oC5e/OfAVe8jrAiXLn1GVbvrQJ0yh2Im4uDiNavQ/Mx+yjW1syM9FHgI/N2Ljs1Vja16OtzP44b3kSatoFeS7Nixs9e2XgyZosBPHz9+ota58sx4Tu8MjwcESWiN//R7lbJ2d7Mj51Ng/YiCEoRhrdSTLWBnFj5bqupvw0WP2SyMt/XWWyslNzc38GzvIOQIw0/HX9eBmZ4qlEQfYKwRWc9wJBtWkUa/iMiqZeR++JPWPuXm3jVnqEqJ9CYBMqERJdcpD0SAbAr49a9/E3im9xDSEp555tlSWloadj3IgBtemKaqLHpSpI9BxPvZvLdR3t1eL+/tapIO43ZRbE0SGvebXLTx9hU08WV3Bj9DNQ6laFTCkC/tTeILhs52//HsXu0Dd0pLd8tzz/2fTJs2NfBMz6dbEdJH9KyzzpWiokLjKrQvgaXAaritUNspECNiQ0hU2eypapUDNW1S29Su3HDyjFSK9M9LVXsVRw/IVMEpxNkT74cVCNA8+vZBdWS4bj6WdNg776zqNU2guhUhR2ctXvyIVoIeS/jby4Ycsgg9eeDpJNZ7u/A6gzW856X92iJkfVhSUiKPP/6oYQRic05lPOlWhOPHf00rLYG7T3HvyUfmSa5hBYrz09S+OFwwzxJ4ANaQo8hf31gXtsOdCRt+EeArr7zc4wM1XYqQ3ODZZ5+nDgvRASFyUqy5HuqTlqy6e3GC7MShfQ512fYE2XshOPOzF3arPZbhirpNECKe2BNPPNajC7y7nJaWLXtTu4saEH5mhiOczwIct6OmLUX19sQN+fPKcnUKUiRn8HkkNhlpSXL5lH6WDquhpK2hoUHOP39Oj84hdmkJiYru27fX+EpvxgoH4X3C9SePyFIF02x16a3Rwt6MnSCNCVHTa675ttx++209bp34FRFyyOfJJ5+q7YpaATE2tvrzZm7dP+cRXSJpzY972tDQKHfffadceumlPWat+BURcliHlUZOdiClwT6+y08udPWmXw/nMSuSfvVqWeAZ65DCYLl01VVXygUXnB/RepGqMJpN5eXlxU3UXxHhJZfMlQ0bNmpFRiOB/BrBG1q0e0LsXSBEYgQ/f6VMO4nfFVTYcBDNhAnjZfbs02Xy5MkybtzYbt1V9sVyaM2nn26QdevWqS1UmzZtVt9jl9CVV14h3//+jTEX42EiZFbg6CqdswScAPc03fgMFl7g7jYYHs6DEDfsbpQ/Lj+onbboDvOQGgTJv5Rajho1Uvr06aNOhKqpqZWKigq1G4if5fs8T6OpYGODqPEAly17I6brzsNE+Prrb8j1199gKTIaKVjEUUVpcsOM/pJqp0eER8JiCvGhlRWWAzU6IDgTmkoZw91/EYJ4nBZ12BT0zjvvqHYDsYSbv6WsRZ55v8JLYfQyCMxR6njL7CIVPafyykmwcuZDR4BgnhZl51BUuxwmwueee16SU9MCV6ExPMmvPOyCO7Jqe6O8v6NezY4evQeEyO4SOoGzCUC3XWI0YX3ImjFWHBryrAfJxehVM/hkaFbrYQ9OtGXbD9+zI8icjGT5yzuV0hzUQs+jd4AQ2T5246wB6nwMoufxRrenkhMcEqF+RNQn6Uk+dXpt8IMjpQdldcjonDYlSqtiZDnIBPDaJ9WeNezF0DqRHTmMn3hZRU4hZl0YKw4Nd3xgvWZOSZKXFvrmIErEiHW0IkTWh29urhfySB69EyqpWCdyahT9ioig6/SpcRIirDNnfj1wFX0OiXD79u1aqQkWz+nJejcF64gQrfLWljrPGvZizEoqmgvffd5AmTnGbxyiEbzpDGmKm2/+QXxSFOQHyaWEdkn9O8fH5FkTljqnock8ICU86Ukd8v8uGOKlLDwURM1pvb9me52s3FgtpXWiduowUeuOKT18xlqwJuYbipUIOW1p8uQphvrD7aL3rweHZluvvuawFP+BmeHp6Tv1PexhprDKa9vkg531smlfs+w82Krqkan1QJDmxG1n/iZHeMIJJ8hjj/1v4JnYoJw+ROhPbIZ75UmSpumKdoagjS6Zxtpw2/5m1VLCw8OE9SIPIqm4qvQ0wl1lwuY4N7r9DStIVZvM8aYwGv6HHhSHX3bZpYGr2KEs4ZIlS2TBgp+GrZQhyMIaj7WeHXTdUvz+vmkdsuCioZ4l9AiLGT8whxXLRlJdbDCHh1eUy+eVbWGtY7x626iXv3PnZ1qVMiwfdYMyXYF4/QIM/Tf4Gfx+T4AeOjBOeJiWkq9xS6lH5kyUA9UtWu7pgAH949JcSolw27btqpg1HElJSSr9EAl+N0EPGgR5eEQCFtF/bHloWI6NGDE8cBVbktnesWvXLq1EvZ3FbmdYU7b7wv+hZEPw+6pbvVSFR0TgkupkNTo6OuK2Yz+ZDY179uwJXIbDvitqkpWi9ze8nU0eTsCJwrpEcyN7KJQIKdMJjz894QS6FtXKDfTw6ArdczJZjpGojwfJpCd0wIW0m57ojJ0Cbw8PO7Cs0U111dbGSYRWqsV1XclQNGoskoHKnEQ57dfDvdBqUWdpQ0xk82Z/q4tYY4iwKvBleCJJT5i0diRpuaMsqAf1TfPSFB4RMyRf7/z8srIDqnAl1iTX1FQbs0DstrS3+JiW9MScnZGYW+2J6FJixYOvzQhvi2HezQeY3wv+WQ/n6ZedohUhJU1BE6hYk/STnyz0PfXU02F3ULCOY59gJHnCnlwxg4B4WxQal9W0yua9TVJa2Sql5Y1S0ZwsDa1ffSOsV/pnGTN1YYY6w+OIgRnK+nvHBjgHn8vyjTWqG3y4hlLUjs6YMV0eeOCPgWdiQ9Ktt8730WJcZxvT6Bw269pnex2DK7wvmkin/mLBEB4Niz7+olE2729RBeisQ9IMvzvFUGYo95vJjUokBMfkwwRF46uJJZneOR4OwXF2uu0VsYYrVvwzpjnDlJEjRy/cv3+/VsVMYbr9kcAuilblioanvsUnc47rK0W5acYADTzpMhBfZX2bvL6+Rh5dXSHv7GiUqsZ2Zd0oQKe7NAIMY/TV9/kdxGcePlrV2CHrdjfJqq31sqeyRQoNd6qfIUbjx1x7P9xMnuG+vfFprVbHb9ojDhzYX44//vjAM9En6eKLL/Ft2bI1cBkau5bwSzeUq/A3gjWjW3uRIj620ry6rlpWbGtQH2ykfTNDYZ7jwcm/FxgTU287894J+MwWryiXT/Y0awmRfOHatf+KWRPglJKSYQvr6mqNL0O9OP/0a8cSNraJ7G9OU7O9jgAZdNOOzDZcsSytxXQsYX3xzrY6eXDFQSmtalPNqXQ+1EjAmmalJUtlQ7tq/dHe1iEjitKNCSrJs4qaMPRonbJmp3/SDAdrw/r6emN9OCPwTHRJ5ugpPetkHSzgF420UNQfLZz7ftpROa6a7REfEc3/fqNMlqyuUoXs0WhWGwrcVI6eQ4gLX9ir1qDM8B7hYT3NEebZ6XqfGeVr9913v6xcuSrwTHRJpqmNHknKqunAz31Rn6JcUP/Eo/fmsYJTRmYdCka4AQY6A37+0j1qFzdCiLLxC4lf/Enyu2Xl8nfDJfbSGnpkGQKcdXSOdgc3TiW7+upr1Cll0SYZ0xse/6jb05SmxIWFCxYkX/Mg+ML3sX7kA8OlIjqDFbxoUoFrIoEI8O2tdYfOS4i262kFIn3Prq2Vx985GHjGIxR4VpNGZlvyYDizYs6ci6KewLc8jyKu/c2pSmhbav0PvubB6bx8385YJaxPiwLOuncDCPDNDTWqIXE0Ay+RgFVevbNRHl5+IPCMRyjwsM4cp28Nze19Z5xxlnzyySfq62hga3Qhsu4ediAvyHmFHBzqhrWgKcAn3q+O6OiuWMAEsWl/iydEDfCwZo3va8kamkI866xzZfHixeprp0kZOnTYwvZ2fEubCooQEtQF6R1yw8yBgQhqfGGNRSev/323WvIjFKDhXauQlN8r928FSwl6tAfuOT9n0XM/DNz+3dVtUl3fKscM6+NFTUPA5zu0IE1Wbm1Q+VwdyKFzzNorr/xd3n13tYwde7QMHDgw8N3ISRk1avTC5maddaHzIEBmp/nnDJI8Y8DHe/DwAXF45W+XldsWoCko2nj0S2+XQuMxILNDpXfosRP84LmsZOOR4jPk6FPFDHYFyXp1y4FWVWQ/ZnCm69I7boExNrBvmpqwaP5kJW6BEPfvL5M//ekh+fjjj1UUdcCAAZKRkRH4CXsknXbaNB+nl8YaIqE5qT655axByld3QzCGNAThf+qrrQaVTIrS7XejA4JeNa3J0thhb21d2dgud50zQJ105JYAl1v5+fNf2Do7Hyhvq6urV/9+/esz5Nhjj5GJEyeqjoUFBQWqlX5lZZXs3LlD1q//1LCga9QpwUcddaScd965Mm/evMBfMkRoLDp9pXv22h50dmBhfNSAdLl+epHaM+iGwYIVJNL4/q4myzlArBe9Lq30Vg0HYixvwRpbey14F30My3rn+cXe6cdhoJHYPS/tV53Z7MYzgAwDD04KRpQ8gOgqa0o6GZqnAvO98vKDMm3aafLnPz+iqnJSjjvuuIUHysq0akcjhQFCFPTs8blyxSn9jIHvjqoPBEgucKlGpX1XlGS1SkGGs28k09Af7mp9a5K0+PR3h7Ourmkx3Fvjxo4f4rmloSASP3ZwhqzcUh9R+iklJUVtgMBdxUXNy8tTD64RIt839cW//MyuXZ/Ljh07lFVMjkW1uCk+DoHEVeL4K7fx19XkAq19EKz7qKeNtA1kKDhyACuLtdWFieT1jXWy80Bz4BmPrsADw22ff2Z/FaFnnMYKhPjss8+r1EcyF7R7iwa8MVxPxHf9aQWqbTlv2m0laau31cmBRv11IIJAgHbO5LADbq7VY+bYRvXquhqVbvHoHlOIHNnN50+sIlZwFOGaNWskubCQQ2D0QFRYNITFi2Xm4MHXPHie7/PgvXCkFbMMJ7CeMDJbvWG3BQt4Pa+srVLF2LoQ0YyVAE0I9mARdWdr3Kt/lTapHR8eoTGFePvZA2RkvzQ1fmMBLiw9nlIuu+yyhStWrAy7qReRfWdaoZw0so8MzkuV/CzDtzUGLq0DivumyrCCNDl+WJbMHpcrFxzbVy48vq8cXZypDu9g3eeGtV9nsIIffVYvq3Y0SVaavis6Iic+AzsnzSeNbfprRNbcDU3tctzwPt7aMAyMz8y0ZJlyRLZK86wtbTYso3+NHS0aGxtl9uxZkpyX11d0+o5y/BRwXBkn4hBY+fdZ/dXjuulF6prn+T7Cw+Xk4TbL15m3t9VrrwWxQsWZkXUXiBQssG4MQVnDL5rUzn8PPRivZ03sK3ec3V8to7CK0Vorojv0l5yfrxckYVYwm/HyQnmYQjPFZj4SBY7l3lHeqrkW9If+oxmE0YVcpO7AoEsBkV+svocejOeSwgwVw+DYNfodkX+NhhgHDRqECEMfh2bCQN1d2WqrmsONMCjXfdGgfWNJ4BdlGJ+OC2B96E8Bhn/tWPn3dzb0mM8tlmBQ8OwW/ttQuXlWkYwfnKGWZVhH/nWCgoJ8SdY9CgrXeE9VfF0xJ2FQrivVT8y7xQqaFKUzMwcuQsDkyT5IzyW1h+nxIcZrphWpQ0mJ9H+tOENFyM2AJEFLvrYqTgKjydS96fQdZZFfVqW7Adj9NBpuGoNTxxXlvrrFCpr4raHeBMLMTRtGzyW1j7nUIt5BpJ84CCWXV56UL1cYDzIBk4ZlqoeOhwJU0pDUV8n64uLiwNPdQzCA/YIM3p5AfXO7msHC49/x4CYraJKdopfEZ7cAfVA1NesRBtM6llfXS66xPu+X1S4TBifJlJGp6qFTakj52rBhw1TZmpobhw8ffqjeLRRNrR1q8CY6WASqSfTCz0nGYNcRa+whYEDP0nDwNmlE7Hb4XCgu4N9gq81z5vNuofMBtiwNeDR1pGtO7iKjRo1U/6q3dcQRo7WqZvB3a5sSX4RYhIN1bVr7ybA0ThyEEw2wzjouKT9CJ/AoRdojwhQXg/rDnfXy/IdV8ueV5aqp1v3LytRm5UffPqieJ8rLz8VbkG3GoMAKdkW1iqIGLkLALgssIai3MnLkCFUFHg7yTlgQN81IdmAwHqht03ofuOFOHIQTXUK/PoRKK343gZAQFM2q7n6mVP7j2b3y8FuV8s8t9fLp3ma114/HtvJWleukyxzNre58bp8s/L8vlGDZehaPsdidN0jE+kCN3uROjnD06NHqa/UWxo4dq7ZhhIN6xJ6Spqi1UJrkxvWgCRE6nTVIV2dhxANEg3iwbGwjenFdrdo7SRsReuYw0TNpMPmZD66JYps/Q2yC3j/s/eScCfPvxoJQVhDIIOi8FiyheUa++nHSFP41YegZlQjpngP1alGayLCwxrWmf2hvojlQ9RQvsH5YsP/33F5l2RAWOz4QmhX4eX6Pg2s56IXNuXRE4O9Hm93l3W+Axw0lg6CzRGCLk5kePCRCdvyGK1/jze+qSz50tFfvwN2uqJXTkznzMZ6wtntwVcUhyxYpphirW5PVgS+0p4ymELGC4YY+O/XDgcE7+ugxh4sQJkwYrxWcUWrvVTmnyAdLb4fBS4CF9ozR6F6HqPm7dEePZkPkUFYQ9tQkGV5i+IkOnU2c+LXAVZAIWSTqBGd6Qs6JD4m1h0543+1w8rGutY5Huwss04OGAGnLaKdrgRVYLz7zUY1aJzptEfH+QllBbi3xEuIm4UBnY8YcFbgKEuG0aVNV45pwMIB3HGhJ+K0xucYHpotu+/944D/5OPwHz6QTa++F/w8XdEtZiyPupw5YRPrFvr+j3tH3+8UBDk0KzcH6duP/DP8+0RlNoUwOvcxRo0YFvgoNpp9yr3gv8iOB+9Q/V6/DG95Fi7I2iQvvYUBWbD8vBEAQZtX2xqhbwM4gRKKn7JJxgs6J+a7ASu6qMJZpmkOFjITJobtD+dqgQXoNTakI2Fcdn16lToAVzzU+KN0dFI3t7hQhFlpjCWJMNj4pKcqK6RKCbW9Pf2CtY4GTYCye/1eVI9YwVErC5GBjitakTlCGIGjw2YeHvcQLL5yjtS7kDbIujLV74xTcLM6I16l4p260vt2db5SooM7MS7CgpIAj6mID67E31teovYy6lsGEj+TLj8X/hc5E0xnc33c/a4x4L+Wu/dWBr7qH9eCOsmZVHhgO8oMXXHB+4MrPYS9v0qRJ0tDQGLjqHvo0vru1JqGDM4P6pkufNJ1PJ8kYBPrHwsWS+na96AOuUklheszW8WybeuXTOktuqF9o/j46Q7NaVQeD0Tlt6l+u/UUJ1sg1rPA/NoRfy3UHbmioYEwwHG/OujscpAEnT54cuPJz2F06+eST1PaKcPB/lTUmJXQTIc6rG1WUpuWS8n6xOm6C5sC67jT9cwb1TdNylyIFq7Nme52yDrogQMSH6OgsR4WSWaVkfk1bDwRpRYx4bASFSOTbQccNBX/Rtt5ngb7GjftyPQiH3SrWheQL/dUz4Un0OtKJJZlqM2Z4fK4TIa3yGWThQKh0EIvVwasIfeXGatU0SQdeH+0cdbqXm2K0KsSPP7fukuq4ocBks22/nshZ6p1wwglKZ8F85aWddNJJym8NB/kQ2iYkKpTeTRzaJ3AVDn89I4egugGsYINmsIhJ5sSRuu8zcnDh8JI0PDMF27Gsnt3hbzfJ74T/PZZO7++os7R0suKGwmcH9VIwLPXortaZr4yqM888Q/VCDAf+72bD1JvNnxIRrANnYui6dVhDN6wNy1tStawg8HNjBmXGzBXdV21t36Ld8zuKM2mGHP4eMBnQ2Fl36RSuQLszuKK6HRrq6urklFNOCVx9yVdEOGLECOWz6riktEFM9E5epx6Rre3P43pwZHg84ThyXYj+ThySIUW5sXFFobSiRXuCoDOAXdRaMRkBh//sqJnV3QcbrjQtGNMV1Sm8Qk+TJp0gRx55ZOCZL/mKfMhfzJo1U6uO1OzklahgHSaU9JH+WbphcP/gsiIEJ7HihgL53FnjcmMWFUV77NPUgfuNKxoJeer3w98POihgCcMZC6tuKOCK4vKGgyXejBnTA1eH0+XLOuecs6WiojJw1T3MeOv3NotTlQnxICMtSWaNz1OtO3Rh/1us14cIcF9Tipp9dcDFnjA4Q0b2j+05hf7SrcBFGMwIqF3YbK0zeXLPwllCakOtuKFQ2ZSq+tbqrH9Z4nECU1d0ebvIY7DfSRf6dyaqS8oAnTomz1JOi5vOxtJYWUQEuL/ZXAdqfOIGuNgXHNfXpXs/Y2SaLaBTGxoMwt60t0krQQ8lJUPka1/7cudEMN2OvKuvnqe3qyItWZZ9mtiJeyaQuZP6WjoIBCFiERFiNIM1WFwsoM5sa0JEdOroLHXISawhYBfe/XVmsDhV06ubjujMut3NWgl6AjJXXXVl4OqrdCtCXFKd6hlew/4GX0LnDLGG9JI8dkiGZt7QD++dXQwEa7BWToKwt9elKourG+gwYY1y0aSCmLqhgPjYnaK7QyzSyUu3ppd1Xi6nrnaBnXUgfF6VpNbcOlAlQ9ahO7qVDS7psGFDtaKkuHLLIigPcgMM2Hmn9bO95QZ3EdFEKkYGJtb1i0aisNaPcebMhGtOLVDHkMcDdqfopHx4X5EWQLCXUvf+ECHuPCkhQKvrQMAV1e3ejn7YRd+dKwoh78K8eVdp7THEJH+yJ7EDNMDAnXdKgRrIVjEHg1+MacqN1J3p+Tl+HhEjPqyrVfEBM/N5E3JlQklWzK2gCTWqekRWGM89YzmgA6IZkHd4aslOIMbEDMjo5Qbr5dprrwlcdU3Id3H22Wcrf1YHXJC3tkS3x0e0YeAygL95Yl9bQgy2XCpwYwgKYSlxGdZNre8CD67930tTP8fP27F8JrjRREPPPTY/bsEY7h81qnrwRu1XIe0xhMAOFx0KjKUx59ObkJC3GogxQdAff9GoHZDBEs6c+fXAVdeEvAM0opk792ItlxTT/Pb2hoQ/eIQBPGNsnrIokZzYipj8gvIPNqwbux7MR/CO+C9/1h4IkGL0q6ceXpMYD8wqJL28q98ltSpEf1Taf1/DoYJUYw7Ple4q00/Id4YKGfqi6gRkCGx+85uXfaVWtDNh3/3ll1+uVcYGuENU0CdqgMaEGf384/PlnPE5EQkxFpgCvH56kVbSOBZQq6qbd8WlY1LSESIuKN6DrhsKrE8nBY5qB7uRUMAKfrSrQdvVJ9d+ySUXB666J+y7ofdMUVG/wFVoSFe8uj6xAzQm3Og5J/iFaM81jT5MeqYA49HEqSu4b8cOs14wjjuOwBCjWu8FnC/+JdhlJ1hF2R4uurmDBAHaiYSa8LsffK4fkGEHfee9g12h9cn96Ec3a1lDbg5J4tXbEt8aAq4pQrxhaqGyOLqF3rEAC33G2Bx1mqxbBGjC+uv8ibnaIXzwCyvp0Fqax5Za/78Eu+wEq/j/z56Yp76OVIDc4k379T9/9HL77bcFrkKj9elddNFFkpOTrTUISVe8srYqoRtBBYMQySEu+MZAVetoZWBFAyYDZngOqmSC0HWNYgn3bPrReSogYhWE1tXDKtynk0dkqbI9ovaRCBD4/be312utBaG4eLBMnz4tcBUaLRFS1H3llVdIU4NeSJetI//a5WzLuXjCQOdwyLvmDFUzfLTOLw8FgQ7+36MHpqvTYpkY4hUF1YGa3Mun9IubK8/nc/nJhapw224qwgQr+P6uNkPYgSfCgBW84YbrD2vmFIokn2YH3N27d8spp0wV3TPu4Z45g10TLHAKUjB8sHTy4rQgAgt2E/w6MJhw8YuzfXLxSUUqheJm8QXDveLgF/rN0Jg3VuCq33F2f1UlE6kAoU3S5ZG3/O37w2N4Ki2t8t5772qLUPvOmOkKnXpSwG1bscn5TsjxBgFgFTm/fP6Z/eXE4f4WGbxfJ62j+TeHF6bJD2b2U1aYc9MTRYDAayXKPNm4R7Fy4xHgvCn5jgnQakTUTM7rChC0LSFgDSdOPE5VhOvAjV90SbHrAgdOgbvN5IhlZCcJpUxs7WL/Gs2V6Mas4wjgavIxmOu9gX2S5MRROXLMsC+LsN249rPCkrfKlecQzUbAuL4UWtC2xAkBAlbwj8sPar/u0tLd8tln26MnQpg//zZ59tnnJCcnJ/BM9zCosBRXnNIv4QdROEyLT7EC3QY4l4ANnweqW6QyRB8g0jrDClKlX3aKjBqQoVpRYGn5e4lk9cLBhPWi4cK/vL7W8UNhzP6x108tVBU7TgkQ2/Hy+mbVWVvHFWUteNNNN8qtt/448IwelkWINZw2bYaWCAFriNvGjN7ThWhiWkhTRJRJcbpr8MZS3CVqVU0vwQxi9eR7xMSyvrRR/rr6oJqYIrWKaK/OmPTGDUqXK6cUSlVtvYpiOgEfCzslOP9Q73X6hN0SK1b8M2yFTGcs3wXWhuyN0q0pJWjxwkf2qxQSEYQUbMUITmHdmIjMB9fBbjq/09MnKe4J69o7zy8+lEfkETBk2rD2xvWkdpRUDblSJwUI/C32yeq2bqyqqpFbbvmhZQGCZUsI5eXlMn361yU1Va8/ATf64uPzZOa4vB7lYnnYB6uI67728wbVp2jDPhpEYYH8bh8F0nxJrMscoU3G8oa19teKM+Tk0dlK0Exc2/c6O8nzOlbvbJP3d+lXxxQWFsorr7xsaS1oYkuEsGTJElmw4KfaKQuEeM8Fg5QF8PAwMd1wWmeyMZxubTSLUkEq45FuiKAoJ1XyspJV4p0tSeZeSZLwTq3/gqltSVWnOum6y/v27ZdHHnm42x4y4bAtQhg7drykp+vtH2PxPGZAunx3Zv8e73Z52MNcS0Nwtif4OcYOPxctAcKTa2rU7g6dYAxWsKSkRF577dXAM9bRk3o3/P73v1OzgA6U+6zd3Syvf1KtAhXmDOjhYYLAWK7w4GvzEfwcY2eH4X5GQ4C4oVTG0EFcNzFPRPTee/8rcG2PiKRwxhmzZfbs07UT+FRNvPppnawvbVAzmYeHFdgNz15AJwMwwbBjnnWgrhtKYv76668N2bpCh4jcUdi6daucfvqZ2mtDIlsUQl92Up6aeYYP1C+D8+i92O0HY4VHV9eqvYq6lZa4onZSEp2J2Cmkrffdd9+pzLIOmHnMPWYfiGwxw3l4dAfbkKIpQIzBW9tbpbZVf68ilTG/+tV/RixAiNgSmkydOl0qKiq00xZEvy49sa8MzGZHgkhR32wvcupxGEzOdnvB6IIAt5WLvLiuVtsNNY84e+yx/w08ExmOifCTTz5RbqnuufckaEm2XnvKl5U33JAhRYabqjsdefRYYuF+AumIx9ZUae8TBApVVq5crgpXnCBid9SExen8+T/Wdkt5z1hAwsGID7hm4c0H4NE7wfqxRImFAOHpD6wJkGzAL3/5C8cECI5ZQqitrZWLL55r+MulltxSirynjKRpbOBJA4Q5uF9uj92B4XE4pB44lix4DEQThhXF2fQP1d0P6rQbauKoCIFo6VFHjZWJE/XDtlTTUEt4hLHG7fwheGvFnk+sXE8TBEhZ2uqdjRaKyMkJ1sj69R/bKk0LheNmhmjp//zPI9puKXAjWBhTtd7Z8PHh4J54LmrPQ+X9ohz57Azji0CMNQH6C7QffXSJ4wIEx0UI8+bNk3POOUt7pwVwQ55fW6uaq3YFHxQfmJfOSHxwPfksiXzG8uNEgPvrUyxFQgGD8t3vfke1/4wGjrujJqwPp5w6TXztbdrrQxL5fVJ8qkFQqnRfhcPN9NaLiUmsXc9giIQ+8V6VMX70AzGsAydMGC9Llz4deMZ5oiZCIG0xY8Ys7XYYYArxqinhzT4a9FIaiUE8xcc4wcNa8k6FtPusnffhdDqiK6JqSkhb/OY3i6S8/GDgmfAwS3EuO6mLcODKkNLw3FT3gvhimXLoCoYGAuRfKwLEDf3rXx+PqgAh6v4c60MOxbASqEGIlS3J8vcNIZqzBMHNZX3hidEdsOZzg/hMqAllWFhxQylLoxxTp419pETVHQ3myiu/JR9++KH2/kNgD+LIfmly1jhrrZy9NWN8YALcezC2wZZwIEA8KysCxGBwXPzChT8JPBNdYiZCAjUzZ54uDQ0N2oEasCtEEy/PGH3cKD6wI8BoJeRDETMRgrntiXMtrAiRqhpOH7IrRPCso7PgctJBzukGS5FiBmHo6GZHgOyKsNsrxi4xFSEQMT3vvAskP5/TcizcIONDL0j370OMBD6k/Nzsw9oNeujhVuGZ8HGyMZd6UF6fFQGyNxDDsGzZG45sT7JCzEUIr7/+hlx++RWWUhcQnEfMTG6JeCB4gtSDIItbhWfCx0ci/ukPqlVPGisCBFIRf//7K6riK9bERYRAt7Yf/Wi+LSFyw+dOypeCzMiPvDKJhyCDGxsFY7zFbp+nz0q0cbvF6wwfFyWPVFyRM7aaNmZnxEsvPR+TSGhXxE2EgBBvu+0O7T2IJgiRwXjOhJwui76dwBRldkaK/4M1rp0QgNngKrjFX2llq5SWN0pFc7I0BB0z3SctWXLTfDJyQKaUFKRJSWG6avtntvyL9PWY7wnRdRjDgNfkhpSCFficrBdjfwmR0KVLn4ybACGuIoTFixfL7bffadkiArsvOK12wuCkqM7YpmE0LSUHvlit0jGb3XJOBc1uN5e1SKsx+HGbaHTb3eExxo8YQvGpBrhMPmy7ObJ/ujoXfkJJH+P1JKlOZFYwLR0kirXrDtpS2D1ohlzgc8/9X9RqQnWJuwghUiFyLvnMMfr5RycwLSWEEqYpvjfW16iTXqubfMaAsRa16wxi5MzCvplJMuvoHJk6JlcdUd2VGEkfYOEAwUEiiw6490RAn1lTrrwHO+dDIkCqYegYGG9cIUJAiHfdtcCyawqkMDJSnV8n2iHYagJHpj35gb97gJ3ZOhxMQrzfyyblqSPBINGtWyi4j+ZBLYjPzmTmBhc0GNeIEJ5+eql873s3Ghax2LiydnOxDnDmuOitE3VhoBAqf/7DSkdOH9IBMQ7I8snsiQWHmmf1ROjSp3tGRGdIQ1DHHM8gTFe4SoSAEG+66YeGRRxgXFm/0fFyT00Q4Pq9Pnlzc72tSF0ksH5sau2+S0Giwj2N1P1EgB0dHcb4ejLiZr1O4zoRwsqVq+Tqq6+RzMxMS5U1JiT204212JzjvmypGAsYLMu32g8UOAUT0fFDM2XGkWkJL8TgSY1orh3306yEefLJJ6K+I8IOrhQhUOJ2/vlz1NdWir5NsApEAScOyZDTRqepDzPaA5JI3brdzbZmaqdhnXz0wHQ5Y2x6QgrRtH7/2FBrqRlTZ0jCH3HEEfLMM0/HtBTNCq4VIXAq8GWXfVP27NmjfTJwZ7CKOak+mTU+T4bl+6IyIN1iATuDEJmEEs0imtZvxVZ/NNduJJkk/EUXzZEHHvhj4Bl34p4R0wW4DhTTEka2sjE4GHpKtviSVTTt9Y0t0ibp6kN2CnPAuE2AgPXgdfH6nHzP0YLXqJrxruazqlPisytAUhD0wXW7AMHVljCYe+/9tfz2t783fPt+gWes418rJsmpo/sYrhofcGQuKr9PveLja6ocEGCojyEy95Y1IiclF+e586M2PwfTnbe79gMCME1NTUp8bsgB6pAwIgQKv6+6ap4Sop2AjQluGuVgTrioj7xDRzl7A4Z1a1Zyh+SldYivtTHw7FdpSu4jrR1Jlk4M6gwpnBtOs+fSRwtTfJ9ViCzbVH9okrQL6z+OrX7iicfiUohtl4QSIbBOvOaa62TTps3ax7F1BxZieE6HnDa+0HIUlQHEOtBuICY7pV0yOxoCV/rUSrZyr63CAOesdzesD7l3QP/PVZtrI86lMsGUl5UlxPqvKxJOhCYLF/5UHn74kYjcU+ADxDIeNSBdTj0iW7vihrXLo+9W2RCgT/ol6fdj7Y6DPtOq6f//vM+rTs6X3PT4NFI2Ld+emiRZubFaHZGXmWbfugPuJ4d1Llr0K5k795LAs4lFwooQzH2JAwb0t5XGCAYxsqOAHfymGP3Pq38Og8HEOQa7KlqNr3VHkOFqJRlusDi3SwGr6HdR+QjDvw7e4/DCNDlvQobWROMUpuWj3AzxkXB3opCB8jM++0RzPzuT0CIEetfcdtvt8uyzz0vRgAEWRNE1rNOoOsFNPfGofBXMMGdwE6zgX96ptOBCOS9AE6vuKS741acUxMQamvdt036fvL+jTrmdkVo+wPohwFtu+aHceuuPA88mLgkvQhPK3e64405lESO1imC6qQUZIieOyjkUTQX2r33weZN2ECE9qSMqAjSxIsRorw3Ne0Tt7Ka9Tcaaucm4j8bzDlg+IPhSXFwsf/zjH1xXfmaXHiNCIGhz++13yKuv/l3txogkghoMYmTtN2ZguowtzpRX1lZpDnq/m9gvKbqnzYJ/jag3yplgnI6UBruc60qbZOfBVnUdSbQzGErPCMax9rvhhu+4tvrFDj1KhCbUnt500w/UrGm30qYrzHWjlVndbhTUKqQxatpStF5XdVOHzJuSH3FdreluHmxMkR1lzco7YKMyE1aky4JgcD0nT54kv/vdb11Z+xkpPVKEwFrxD3+4X/70p4ekT58sR1xUa/hvqxORUF10I6ZMJhR4dz6YVQdTeKyLcTc37WmU2lZ/dwCnrJ6JOYneddedCRv51KHHitAkWi6qDrGygiZYw/r2lMBV9xB8yktt12ofabqZFFOX1bTKjgMtsrOsSQVZsHZ2cqThwPUsKzsgt976I/n+92/sUa5nV/R4EZq89957cvfdP5H16z9VSf5YiJGATFqyT7JSfCErYpzkoE9vwHa1LjQFh6WjxhbR7a5sVdYO0UG0hAeIr6KiUr71rSvl5pt/2CNdz67oNSI0efnlv8l99/1B1q79OOLyN2v40xSAMKNlIXUDNJ0T96zrDtS0SXldm+r8Vt2arFosgtNuZmdM8c2efbrhtczvMVFPXXqdCE0Q409/eo/s2bM3ZpYxGFxC/9j2ixNhQqRWU9clBdxlalJZ02EZ04wXRDwlyVjgRVl3CtPtnDlzhixYcHevE59JrxWhSbBlLCwsiEMA53AQp4kpUhPTkoaixccvxUBBEUDAhVIzaj2vvvrbrur3Eg96vQhNSGs89NDDsmrVW4ZVTHE0teHhh1QDkepLL50rV1zxzYQuNXMST4SdoK3G448/IX/5yxJ1bfUEKY/DMdd7w4YNlRtuuF7mzJmj+r14fIknwm4gz0haY+nSpfLmm8vVutFu46nehrmzgX/PP/88z+UMgydCDbCOL7zwojz11NMqkBCf5L/7Ya0HNFbiiPRzzz3Xs3oaeCK0CPnGV1551bCQz6hGQr3XQvoMV7NVGhoalfhGjRqp3M3p06d7az2LeCKMAA48fe2112XNmjWyciUBnVTJy8uV5OTkHilK3Ev6t+BqMvFMnXqa4W5+Q0499ZRek1iPBp4IHYLyuI8+WisrVqyQd99do9o0trW1J7TriujoWo21430MGzZMZsyYbojuVBk3bqznajqEJ8IoQFBn3759snnzFvnggw9k2bI3ZcuWrWpQk/ogBYIw3WIxTbERyWxqalbXcOyxx6gqlokTJ8r48eM8axclPBHGCIT52WefycaNm2TDhg2ybdt22bVrl7KY5M/MdWWwQMEJkZqiMoWGheY5HhQoYOFY040ePVoJbuTIEd66LoZ4IowjCLO5uVkqKytl7959snPnDlVGV1FRoa6bm5tU8KempkaJxxSQDn43OM1Yo/ZVu0cyMjJl8OBBMnDgQCW6QYMGqeuCggLPrYwrIv8fdkRxS5DDAXcAAAAASUVORK5CYII=;" vertex="1" parent="1">
                    <mxGeometry x="60" y="90" width="110.99" height="110" as="geometry"/>
                </mxCell>
                <mxCell id="7" value="You've clicked 4 times." style="text;html=1;align=center;verticalAlign=middle;resizable=0;points=[];autosize=1;strokeColor=none;fillColor=none;" vertex="1" parent="1">
                    <mxGeometry x="50" y="220" width="140" height="20" as="geometry"/>
                </mxCell>
            </root>
        </mxGraphModel>
    </diagram>
</mxfile>